<svg width="14" height="10" viewBox="0 0 14 10" fill="none" xmlns="http://www.w3.org/2000/svg">
<path d="M5.10938 1.85156C4.55859 2.14453 4.11914 2.40234 3.79102 2.625C3.46289 2.84766 3.1875 3.12891 2.96484 3.46875C2.75391 3.80859 2.64844 4.21875 2.64844 4.69922C2.82422 4.95703 3.0293 5.16211 3.26367 5.31445C3.50977 5.4668 3.80859 5.57227 4.16016 5.63086C5.39062 5.85352 6.00586 6.51562 6.00586 7.61719C6.00586 8.27344 5.77734 8.81836 5.32031 9.25195C4.86328 9.68555 4.27148 9.90234 3.54492 9.90234C2.92383 9.90234 2.37305 9.75 1.89258 9.44531C1.41211 9.14062 1.03711 8.71289 0.767578 8.16211C0.509766 7.61133 0.380859 6.98438 0.380859 6.28125C0.380859 5.42578 0.568359 4.58789 0.943359 3.76758C1.33008 2.93555 1.88672 2.22656 2.61328 1.64062C3.33984 1.05469 4.18945 0.673828 5.16211 0.498047C5.49023 0.767578 5.70117 1.0957 5.79492 1.48242L5.10938 1.85156ZM12.5801 1.85156C12.0293 2.14453 11.5898 2.40234 11.2617 2.625C10.9336 2.84766 10.6582 3.12891 10.4355 3.46875C10.2246 3.80859 10.1191 4.21875 10.1191 4.69922C10.4473 5.20313 10.9512 5.51367 11.6309 5.63086C12.8496 5.85352 13.459 6.51562 13.459 7.61719C13.459 8.27344 13.2305 8.81836 12.7734 9.25195C12.3281 9.68555 11.7422 9.90234 11.0156 9.90234C10.3945 9.90234 9.84375 9.75 9.36328 9.44531C8.88281 9.14062 8.50781 8.71289 8.23828 8.16211C7.98047 7.61133 7.85156 6.98438 7.85156 6.28125C7.85156 5.42578 8.03906 4.58789 8.41406 3.76758C8.80078 2.93555 9.35742 2.22656 10.084 1.64062C10.8105 1.05469 11.6602 0.673828 12.6328 0.498047C12.9609 0.767578 13.1719 1.0957 13.2656 1.48242L12.5801 1.85156Z" fill="#AFAFAF"/>
</svg>
