<svg width="16" height="16" viewBox="0 0 16 16" fill="none" xmlns="http://www.w3.org/2000/svg">
<path d="M8.00065 1.33398C9.66817 3.15955 10.6158 5.52867 10.6673 8.00065C10.6158 10.4726 9.66817 12.8417 8.00065 14.6673M8.00065 1.33398C6.33313 3.15955 5.38548 5.52867 5.33398 8.00065C5.38548 10.4726 6.33313 12.8417 8.00065 14.6673M8.00065 1.33398C4.31875 1.33398 1.33398 4.31875 1.33398 8.00065C1.33398 11.6826 4.31875 14.6673 8.00065 14.6673M8.00065 1.33398C11.6826 1.33398 14.6673 4.31875 14.6673 8.00065C14.6673 11.6826 11.6826 14.6673 8.00065 14.6673M1.66733 6.00065H14.334M1.66732 10.0007H14.334" stroke="#9E9E9E" stroke-linecap="round" stroke-linejoin="round"/>
</svg>
