<svg width="36" height="36" viewBox="0 0 36 36" fill="none" xmlns="http://www.w3.org/2000/svg">
<path fill-rule="evenodd" clip-rule="evenodd" d="M18.0009 36C27.941 36 36 27.9406 36 18H35.9977C35.9977 8.05708 27.9388 0 17.9986 0H17.9552H17.8844C16.3982 0.130137 15.1243 4.30822 14.5284 10.3037C14.5033 10.5594 14.4782 10.8196 14.4554 11.0822C13.7477 5.76256 12.2432 2.09361 10.5035 2.09361C8.07899 2.09361 6.11333 9.2169 6.11333 18.0023C6.11333 26.7877 8.08127 33.9064 10.5058 33.9064C12.2454 33.9064 13.7499 30.2397 14.4577 24.9201C14.4805 25.1827 14.5056 25.4429 14.5307 25.6986C15.1266 31.6941 16.4005 35.8699 17.8867 36H17.9575H18.0009ZM2.33322 24.7375C3.62539 24.7375 4.66872 21.7193 4.66872 18.0001C4.66872 14.2786 3.62311 11.2626 2.33322 11.2626C1.04333 11.2626 0 14.2809 0 18.0001C0 21.7193 1.04105 24.7375 2.33322 24.7375Z" fill="#00C781"/>
</svg>
